<svg xmlns="http://www.w3.org/2000/svg" viewBox="0 0 160 112" role="img" aria-label="Hollow Stair gate">
  <defs>
    <linearGradient id="stone" x1="16" y1="8" x2="136" y2="108" gradientUnits="userSpaceOnUse">
      <stop offset="0" stop-color="#3a2a1b"/>
      <stop offset="0.48" stop-color="#151116"/>
      <stop offset="1" stop-color="#07080d"/>
    </linearGradient>
    <linearGradient id="innerStone" x1="48" y1="22" x2="111" y2="94" gradientUnits="userSpaceOnUse">
      <stop offset="0" stop-color="#1c1514"/>
      <stop offset="1" stop-color="#060609"/>
    </linearGradient>
    <radialGradient id="ember" cx="50%" cy="48%" r="64%">
      <stop offset="0" stop-color="#ffe1a3" stop-opacity="0.96"/>
      <stop offset="0.42" stop-color="#e28b38" stop-opacity="0.60"/>
      <stop offset="1" stop-color="#060507" stop-opacity="0.06"/>
    </radialGradient>
    <filter id="gateGlow" x="-24%" y="-28%" width="148%" height="156%">
      <feDropShadow dx="0" dy="0" stdDeviation="4" flood-color="#f0a24d" flood-opacity="0.38"/>
    </filter>
  </defs>

  <rect width="160" height="112" rx="18" fill="#070609"/>
  <path d="M10 95c21-12 44-17 70-17s49 5 70 17v13H10V95Z" fill="#0d0b0e"/>
  <path d="M31 95V47c0-23 19-40 49-40s49 17 49 40v48" fill="url(#stone)" stroke="#d08c45" stroke-opacity="0.5" stroke-width="3"/>
  <path d="M38 96V49c0-20 17-35 42-35s42 15 42 35v47" fill="none" stroke="#fff2c8" stroke-opacity="0.12" stroke-width="1.4"/>
  <path d="M45 94V50c0-17 14-29 35-29s35 12 35 29v44" fill="url(#innerStone)" stroke="#f0a24d" stroke-opacity="0.56" stroke-width="2" filter="url(#gateGlow)"/>
  <path d="M52 92V53c0-13 11-23 28-23s28 10 28 23v39" fill="url(#ember)" opacity="0.86"/>

  <path d="M63 95h34l-4 7H67l-4-7Z" fill="#29160f" stroke="#f0a24d" stroke-opacity="0.4"/>
  <path d="M57 86h46M61 77h38M65 68h30M69 59h22M73 50h14" fill="none" stroke="#ffd795" stroke-opacity="0.34" stroke-width="2" stroke-linecap="round"/>
  <path d="M29 48h102M35 36h90M46 24h68" fill="none" stroke="#fff2c8" stroke-opacity="0.15" stroke-width="1.6" stroke-linecap="round"/>
  <path d="M34 55c8-3 13-8 15-16M126 55c-8-3-13-8-15-16" fill="none" stroke="#f0a24d" stroke-opacity="0.18" stroke-width="1.5" stroke-linecap="round"/>
  <path d="M31 95c29 9 69 9 98 0" fill="none" stroke="#f0a24d" stroke-opacity="0.34" stroke-width="2" stroke-linecap="round"/>
  <circle cx="48" cy="64" r="2" fill="#f0a24d" opacity="0.62"/>
  <circle cx="112" cy="64" r="2" fill="#f0a24d" opacity="0.62"/>
  <circle cx="58" cy="43" r="1.4" fill="#ffd795" opacity="0.42"/>
  <circle cx="102" cy="43" r="1.4" fill="#ffd795" opacity="0.42"/>
  <circle cx="80" cy="33" r="1.2" fill="#fff2c8" opacity="0.3"/>
</svg>